<svg width="212" height="102" viewBox="0 0 212 102" fill="none" xmlns="http://www.w3.org/2000/svg">
<path d="M18.496 73.16C17.92 72.0507 17.12 71.2187 16.096 70.664C15.072 70.088 13.888 69.8 12.544 69.8C11.072 69.8 9.76 70.1307 8.608 70.792C7.456 71.4533 6.54933 72.392 5.888 73.608C5.248 74.824 4.928 76.232 4.928 77.832C4.928 79.432 5.248 80.8507 5.888 82.088C6.54933 83.304 7.456 84.2427 8.608 84.904C9.76 85.5653 11.072 85.896 12.544 85.896C14.528 85.896 16.1387 85.3413 17.376 84.232C18.6133 83.1227 19.3707 81.6187 19.648 79.72H11.296V76.808H23.552V79.656C23.3173 81.384 22.6987 82.9733 21.696 84.424C20.7147 85.8747 19.424 87.0373 17.824 87.912C16.2453 88.7653 14.4853 89.192 12.544 89.192C10.4533 89.192 8.544 88.712 6.816 87.752C5.088 86.7707 3.712 85.416 2.688 83.688C1.68533 81.96 1.184 80.008 1.184 77.832C1.184 75.656 1.68533 73.704 2.688 71.976C3.712 70.248 5.088 68.904 6.816 67.944C8.56533 66.9627 10.4747 66.472 12.544 66.472C14.912 66.472 17.0133 67.0587 18.848 68.232C20.704 69.384 22.048 71.0267 22.88 73.16H18.496ZM30.798 73.928C31.3313 73.032 32.0353 72.3387 32.91 71.848C33.806 71.336 34.862 71.08 36.078 71.08V74.856H35.15C33.7207 74.856 32.6327 75.2187 31.886 75.944C31.1607 76.6693 30.798 77.928 30.798 79.72V89H27.15V71.368H30.798V73.928ZM55.5913 79.752C55.5913 80.4133 55.5486 81.0107 55.4633 81.544H41.9913C42.0979 82.952 42.6206 84.0827 43.5593 84.936C44.4979 85.7893 45.6499 86.216 47.0153 86.216C48.9779 86.216 50.3646 85.3947 51.1753 83.752H55.1112C54.5779 85.3733 53.6073 86.7067 52.1993 87.752C50.8126 88.776 49.0846 89.288 47.0153 89.288C45.3299 89.288 43.8153 88.9147 42.4713 88.168C41.1486 87.4 40.1033 86.3333 39.3353 84.968C38.5886 83.5813 38.2153 81.9813 38.2153 80.168C38.2153 78.3547 38.5779 76.7653 39.3033 75.4C40.0499 74.0133 41.0846 72.9467 42.4073 72.2C43.7513 71.4533 45.2873 71.08 47.0153 71.08C48.6793 71.08 50.1619 71.4427 51.4633 72.168C52.7646 72.8933 53.7779 73.9173 54.5033 75.24C55.2286 76.5413 55.5913 78.0453 55.5913 79.752ZM51.7833 78.6C51.7619 77.256 51.2819 76.1787 50.3433 75.368C49.4046 74.5573 48.2419 74.152 46.8553 74.152C45.5966 74.152 44.5193 74.5573 43.6233 75.368C42.7273 76.1573 42.1939 77.2347 42.0233 78.6H51.7833ZM75.3413 79.752C75.3413 80.4133 75.2986 81.0107 75.2133 81.544H61.7413C61.8479 82.952 62.3706 84.0827 63.3093 84.936C64.2479 85.7893 65.3999 86.216 66.7653 86.216C68.7279 86.216 70.1146 85.3947 70.9253 83.752H74.8612C74.3279 85.3733 73.3573 86.7067 71.9493 87.752C70.5626 88.776 68.8346 89.288 66.7653 89.288C65.0799 89.288 63.5653 88.9147 62.2213 88.168C60.8986 87.4 59.8533 86.3333 59.0853 84.968C58.3386 83.5813 57.9653 81.9813 57.9653 80.168C57.9653 78.3547 58.3279 76.7653 59.0533 75.4C59.7999 74.0133 60.8346 72.9467 62.1573 72.2C63.5013 71.4533 65.0373 71.08 66.7653 71.08C68.4293 71.08 69.9119 71.4427 71.2133 72.168C72.5146 72.8933 73.5279 73.9173 74.2533 75.24C74.9786 76.5413 75.3413 78.0453 75.3413 79.752ZM71.5333 78.6C71.5119 77.256 71.0319 76.1787 70.0933 75.368C69.1546 74.5573 67.9919 74.152 66.6053 74.152C65.3466 74.152 64.2693 74.5573 63.3733 75.368C62.4773 76.1573 61.9439 77.2347 61.7733 78.6H71.5333ZM87.8273 71.08C89.2139 71.08 90.4513 71.368 91.5393 71.944C92.6486 72.52 93.5126 73.3733 94.1313 74.504C94.7499 75.6347 95.0593 77 95.0593 78.6V89H91.4433V79.144C91.4433 77.5653 91.0486 76.36 90.2593 75.528C89.4699 74.6747 88.3926 74.248 87.0273 74.248C85.6619 74.248 84.5739 74.6747 83.7633 75.528C82.9739 76.36 82.5793 77.5653 82.5793 79.144V89H78.9313V71.368H82.5793V73.384C83.1766 72.6587 83.9339 72.0933 84.8513 71.688C85.7899 71.2827 86.7819 71.08 87.8273 71.08ZM115.353 89.224C113.86 89.224 112.516 88.968 111.321 88.456C110.126 87.9227 109.188 87.176 108.505 86.216C107.822 85.256 107.481 84.136 107.481 82.856H111.385C111.47 83.816 111.844 84.6053 112.505 85.224C113.188 85.8427 114.137 86.152 115.353 86.152C116.612 86.152 117.593 85.8533 118.297 85.256C119.001 84.6373 119.353 83.848 119.353 82.888C119.353 82.1413 119.129 81.5333 118.681 81.064C118.254 80.5947 117.71 80.232 117.049 79.976C116.409 79.72 115.513 79.4427 114.361 79.144C112.91 78.76 111.726 78.376 110.809 77.992C109.913 77.5867 109.145 76.968 108.505 76.136C107.865 75.304 107.545 74.1947 107.545 72.808C107.545 71.528 107.865 70.408 108.505 69.448C109.145 68.488 110.041 67.752 111.193 67.24C112.345 66.728 113.678 66.472 115.193 66.472C117.348 66.472 119.108 67.016 120.473 68.104C121.86 69.1707 122.628 70.6427 122.777 72.52H118.745C118.681 71.7093 118.297 71.016 117.593 70.44C116.889 69.864 115.961 69.576 114.809 69.576C113.764 69.576 112.91 69.8427 112.249 70.376C111.588 70.9093 111.257 71.6773 111.257 72.68C111.257 73.3627 111.46 73.928 111.865 74.376C112.292 74.8027 112.825 75.144 113.465 75.4C114.105 75.656 114.98 75.9333 116.089 76.232C117.561 76.6373 118.756 77.0427 119.673 77.448C120.612 77.8533 121.401 78.4827 122.041 79.336C122.702 80.168 123.033 81.288 123.033 82.696C123.033 83.8267 122.724 84.8933 122.105 85.896C121.508 86.8987 120.622 87.7093 119.449 88.328C118.297 88.9253 116.932 89.224 115.353 89.224ZM131.594 74.344V84.104C131.594 84.7653 131.743 85.2453 132.042 85.544C132.362 85.8213 132.895 85.96 133.642 85.96H135.882V89H133.002C131.359 89 130.1 88.616 129.226 87.848C128.351 87.08 127.914 85.832 127.914 84.104V74.344H125.834V71.368H127.914V66.984H131.594V71.368H135.882V74.344H131.594ZM155.404 79.752C155.404 80.4133 155.361 81.0107 155.276 81.544H141.804C141.91 82.952 142.433 84.0827 143.372 84.936C144.31 85.7893 145.462 86.216 146.828 86.216C148.79 86.216 150.177 85.3947 150.988 83.752H154.924C154.39 85.3733 153.42 86.7067 152.012 87.752C150.625 88.776 148.897 89.288 146.828 89.288C145.142 89.288 143.628 88.9147 142.284 88.168C140.961 87.4 139.916 86.3333 139.148 84.968C138.401 83.5813 138.028 81.9813 138.028 80.168C138.028 78.3547 138.39 76.7653 139.116 75.4C139.862 74.0133 140.897 72.9467 142.22 72.2C143.564 71.4533 145.1 71.08 146.828 71.08C148.492 71.08 149.974 71.4427 151.276 72.168C152.577 72.8933 153.59 73.9173 154.316 75.24C155.041 76.5413 155.404 78.0453 155.404 79.752ZM151.596 78.6C151.574 77.256 151.094 76.1787 150.156 75.368C149.217 74.5573 148.054 74.152 146.668 74.152C145.409 74.152 144.332 74.5573 143.436 75.368C142.54 76.1573 142.006 77.2347 141.836 78.6H151.596ZM157.778 80.104C157.778 78.3333 158.14 76.7653 158.866 75.4C159.612 74.0347 160.615 72.9787 161.874 72.232C163.154 71.464 164.562 71.08 166.098 71.08C167.484 71.08 168.69 71.3573 169.714 71.912C170.759 72.4453 171.591 73.1173 172.21 73.928V71.368H175.89V89H172.21V86.376C171.591 87.208 170.748 87.9013 169.682 88.456C168.615 89.0107 167.399 89.288 166.034 89.288C164.519 89.288 163.132 88.904 161.874 88.136C160.615 87.3467 159.612 86.2587 158.866 84.872C158.14 83.464 157.778 81.8747 157.778 80.104ZM172.21 80.168C172.21 78.952 171.954 77.896 171.442 77C170.951 76.104 170.3 75.4213 169.49 74.952C168.679 74.4827 167.804 74.248 166.866 74.248C165.927 74.248 165.052 74.4827 164.242 74.952C163.431 75.4 162.77 76.072 162.258 76.968C161.767 77.8427 161.522 78.888 161.522 80.104C161.522 81.32 161.767 82.3867 162.258 83.304C162.77 84.2213 163.431 84.9253 164.242 85.416C165.074 85.8853 165.948 86.12 166.866 86.12C167.804 86.12 168.679 85.8853 169.49 85.416C170.3 84.9467 170.951 84.264 171.442 83.368C171.954 82.4507 172.21 81.384 172.21 80.168ZM202.025 71.08C203.412 71.08 204.649 71.368 205.737 71.944C206.847 72.52 207.711 73.3733 208.329 74.504C208.969 75.6347 209.289 77 209.289 78.6V89H205.673V79.144C205.673 77.5653 205.279 76.36 204.489 75.528C203.7 74.6747 202.623 74.248 201.257 74.248C199.892 74.248 198.804 74.6747 197.993 75.528C197.204 76.36 196.809 77.5653 196.809 79.144V89H193.193V79.144C193.193 77.5653 192.799 76.36 192.009 75.528C191.22 74.6747 190.143 74.248 188.777 74.248C187.412 74.248 186.324 74.6747 185.513 75.528C184.724 76.36 184.329 77.5653 184.329 79.144V89H180.681V71.368H184.329V73.384C184.927 72.6587 185.684 72.0933 186.601 71.688C187.519 71.2827 188.5 71.08 189.545 71.08C190.953 71.08 192.212 71.3787 193.321 71.976C194.431 72.5733 195.284 73.4373 195.881 74.568C196.415 73.5013 197.247 72.6587 198.377 72.04C199.508 71.4 200.724 71.08 202.025 71.08Z" fill="black"/>
<path d="M113.905 47.4816C113.305 52.0499 111.022 55.5928 108.643 58.1199L108.636 58.1311C108.584 58.1949 108.515 58.2637 108.452 58.325C108.357 58.4767 108.28 58.6381 108.257 58.8113C108.163 59.5288 108.846 60.2285 109.774 60.3503C110.093 60.3922 110.406 60.3674 110.681 60.2824C110.8 60.2165 110.926 60.166 111.054 60.1013C118.887 56.5207 126.129 50.317 127.179 42.3166C128.618 31.3526 111.172 23.6264 112.372 14.4864C112.815 11.1117 113.948 8.52655 115.22 6.60091C115.299 6.45898 115.394 6.33847 115.483 6.20146C115.513 6.12391 115.528 6.0432 115.538 5.96661C115.634 5.23725 114.965 4.55139 114.022 4.42757C113.713 4.38702 113.399 4.41659 113.134 4.50276C112.97 4.57115 112.808 4.66253 112.637 4.74564C107.146 7.50082 100.387 12.495 99.3208 20.6145C97.4884 34.5759 115.276 37.0316 113.905 47.4816ZM85.8004 44.8585C85.5597 46.6931 84.901 48.2546 84.061 49.5503C83.972 49.6908 83.887 49.8127 83.7895 49.9486C83.7639 50.0267 83.7386 50.1025 83.7281 50.1826C83.6339 50.9002 84.3183 51.5845 85.2511 51.7069C85.7032 51.7663 86.1107 51.6987 86.4342 51.523C86.483 51.4898 86.5316 51.4699 86.5759 51.4361C90.4264 49.1141 93.6016 45.7469 94.1443 41.6123C95.0497 34.7135 84.0816 29.8411 84.8373 24.0831C85.0132 22.7434 85.3704 21.5869 85.8118 20.6177C85.8259 20.592 85.834 20.5654 85.8374 20.5395C85.8781 20.4634 85.8933 20.3826 85.9033 20.3061C85.9975 19.5885 85.3132 18.9042 84.3758 18.7812C83.9388 18.7238 83.5233 18.8059 83.2018 18.9782C83.1273 19.008 83.0596 19.0686 82.9786 19.1132C80.0598 20.9594 77.1624 23.8093 76.6198 27.9439C75.4681 36.7425 86.662 38.2945 85.8004 44.8585Z" fill="#81B175"/>
</svg>
